<svg width="24" height="24" viewBox="0 0 24 24" fill="none" xmlns="http://www.w3.org/2000/svg">
<rect width="24" height="24" rx="12" fill="#154536"/>
<path fill-rule="evenodd" clip-rule="evenodd" d="M7.07112 10.7135C6.91015 10.6626 6.73838 10.7518 6.68745 10.9127L6.50313 11.4953L6.16251 11.3875C6.00154 11.3366 5.82977 11.4258 5.77883 11.5868L5.01424 14.0032C4.98978 14.0805 4.99703 14.1643 5.0344 14.2363C5.07177 14.3083 5.13619 14.3624 5.2135 14.3869L16.8667 18.0732C17.0277 18.1241 17.1995 18.0349 17.2504 17.874L18.015 15.4576C18.0659 15.2967 17.9768 15.125 17.816 15.074L17.4537 14.959L17.638 14.377C17.6625 14.2997 17.6553 14.2158 17.6179 14.1438C17.5805 14.0719 17.5161 14.0177 17.4388 13.9932L7.07112 10.7135Z" fill="white"/>
<path fill-rule="evenodd" clip-rule="evenodd" d="M14.2239 6.30596C12.5776 5.77678 10.9127 5.79741 9.54173 6.2719C8.17066 6.74642 7.07716 7.68299 6.62518 8.99004C6.59831 9.06776 6.60388 9.15303 6.64064 9.2266C6.6774 9.30016 6.74225 9.35581 6.82054 9.38098L18.4491 13.1192C18.5274 13.1443 18.6126 13.1369 18.6853 13.0985C18.7581 13.0601 18.8123 12.994 18.8357 12.9151C19.6252 10.2561 17.4848 7.35408 14.2239 6.30596Z" fill="white"/>
</svg>
